<?xml version="1.0" encoding="utf-8"?>
<!-- Generator: Adobe Illustrator 17.0.0, SVG Export Plug-In . SVG Version: 6.00 Build 0)  -->
<!DOCTYPE svg PUBLIC "-//W3C//DTD SVG 1.1//EN" "http://www.w3.org/Graphics/SVG/1.1/DTD/svg11.dtd">
<svg version="1.1" id="Ebene_1" xmlns="http://www.w3.org/2000/svg" xmlns:xlink="http://www.w3.org/1999/xlink" x="0px" y="0px"
	 width="243.278px" height="58px" viewBox="0 0 243.278 58" enable-background="new 0 0 243.278 58" xml:space="preserve">
<path id="Path" display="none" fill="#103754" d="M65.168,36.25c0,7.588-6.107,13.739-13.638,13.739H9.339
	c-7.529,0-13.635-6.151-13.635-13.739c0-6.853,4.977-12.528,11.491-13.568c-0.082-0.482-0.128-0.976-0.128-1.485
	c0-4.807,3.869-8.704,8.642-8.704c2.128,0,4.079,0.776,5.584,2.066c2.684-6.092,6.121-11.649,15.77-11.649
	c11.701,0,17.249,9.093,17.249,18.688c0,0.4-0.018,0.797-0.046,1.192C60.487,24.065,65.168,29.608,65.168,36.25z"/>
<rect x="-3.222" y="-1.955" fill="#2C3E50" width="246.5" height="62"/>
<g>
	<path fill="#FFFFFF" d="M61.833,46c0,6.627-5.373,12-12,12H12C5.373,58,0,52.627,0,46V12C0,5.373,5.373,0,12,0h37.833
		c6.627,0,12,5.373,12,12V46z"/>
	<g>
		<path fill="#FFFFFF" stroke="#FFFFFF" stroke-miterlimit="10" d="M77.04,45.528c-0.762,0-1.469-0.085-2.124-0.255
			c-0.654-0.17-1.244-0.455-1.768-0.854l0.964-0.99c0.405,0.279,0.845,0.47,1.321,0.569c0.476,0.101,0.952,0.15,1.428,0.15
			c0.453,0,0.893-0.075,1.321-0.225c0.429-0.15,0.809-0.36,1.143-0.63c0.333-0.271,0.607-0.591,0.821-0.96
			c0.214-0.371,0.321-0.775,0.321-1.216v-16.5h1.785v16.44c0,0.66-0.149,1.26-0.446,1.8c-0.298,0.54-0.696,1.01-1.196,1.41
			c-0.5,0.399-1.059,0.71-1.678,0.93C78.313,45.418,77.683,45.528,77.04,45.528z M80.468,21.078v-2.76h1.785v2.76H80.468z"/>
		<path fill="#FFFFFF" stroke="#FFFFFF" stroke-miterlimit="10" d="M95.354,40.518c-3.951,0-5.926-2.3-5.926-6.9v-9h1.785v8.79
			c0,3.84,1.559,5.761,4.677,5.761c0.785,0,1.547-0.115,2.285-0.346c0.737-0.229,1.428-0.55,2.071-0.96
			c0.643-0.409,1.208-0.904,1.696-1.484c0.487-0.58,0.875-1.22,1.16-1.92v-9.84h1.785v13.5c0,0.501,0.25,0.75,0.75,0.75v1.351
			c-0.12,0.02-0.227,0.029-0.321,0.029c-0.096,0-0.167,0-0.214,0c-0.476,0-0.898-0.124-1.267-0.375
			c-0.37-0.249-0.554-0.585-0.554-1.005v-2.34c-0.809,1.26-1.922,2.24-3.338,2.94S96.996,40.518,95.354,40.518z"/>
		<path fill="#FFFFFF" stroke="#FFFFFF" stroke-miterlimit="10" d="M118.237,40.518c-1.428,0-2.797-0.2-4.105-0.6
			c-1.31-0.4-2.452-1-3.427-1.801l0.892-1.02c1,0.76,2.035,1.32,3.106,1.68c1.071,0.36,2.25,0.54,3.535,0.54
			c1.618,0,2.921-0.285,3.909-0.854c0.987-0.57,1.481-1.365,1.481-2.386c0-0.479-0.125-0.885-0.375-1.215s-0.625-0.609-1.125-0.84
			c-0.5-0.229-1.119-0.435-1.856-0.615c-0.738-0.18-1.595-0.369-2.57-0.569c-1.048-0.2-1.958-0.4-2.731-0.601
			c-0.774-0.199-1.41-0.439-1.91-0.72c-0.5-0.28-0.875-0.62-1.125-1.021c-0.25-0.399-0.375-0.909-0.375-1.529
			c0-0.78,0.179-1.459,0.536-2.04c0.357-0.58,0.851-1.06,1.481-1.44c0.63-0.38,1.357-0.665,2.178-0.855
			c0.821-0.19,1.696-0.285,2.624-0.285c1.452,0,2.737,0.206,3.855,0.615c1.119,0.41,1.987,0.935,2.606,1.575l-1,0.81
			c-0.619-0.6-1.422-1.05-2.41-1.35c-0.988-0.3-2.041-0.45-3.159-0.45c-0.691,0-1.339,0.06-1.946,0.18
			c-0.607,0.12-1.137,0.311-1.589,0.57c-0.452,0.26-0.809,0.595-1.071,1.005c-0.262,0.41-0.393,0.896-0.393,1.455
			c0,0.46,0.089,0.83,0.268,1.109c0.179,0.28,0.464,0.521,0.857,0.721s0.898,0.375,1.517,0.524c0.619,0.15,1.357,0.315,2.213,0.495
			c1.166,0.24,2.201,0.471,3.106,0.69c0.904,0.22,1.66,0.49,2.267,0.81c0.607,0.32,1.071,0.7,1.392,1.14
			c0.321,0.44,0.482,1.001,0.482,1.681c0,1.4-0.648,2.515-1.945,3.345C122.134,40.103,120.402,40.518,118.237,40.518z"/>
		<path fill="#FFFFFF" stroke="#FFFFFF" stroke-miterlimit="10" d="M139.586,39.469c-0.096,0.04-0.258,0.115-0.482,0.225
			c-0.227,0.11-0.512,0.215-0.857,0.315c-0.346,0.1-0.732,0.19-1.16,0.27c-0.428,0.08-0.893,0.12-1.393,0.12s-0.969-0.06-1.41-0.18
			c-0.44-0.12-0.827-0.3-1.16-0.54c-0.334-0.24-0.595-0.53-0.786-0.87c-0.191-0.34-0.286-0.74-0.286-1.2v-11.76h-2.606v-1.23h2.606
			v-5.34h1.785v5.34h4.319v1.23h-4.319v11.399c0,0.581,0.238,1.016,0.713,1.306c0.477,0.29,1.012,0.435,1.607,0.435
			c0.736,0,1.375-0.104,1.91-0.314s0.861-0.346,0.98-0.405L139.586,39.469z"/>
		<path fill="#FFFFFF" stroke="#FFFFFF" stroke-miterlimit="10" d="M165.974,38.562v1.656h-20.263v-25.56h19.878v1.656h-17.693
			v10.044h15.465v1.584h-15.465v10.62H165.974z"/>
		<path fill="#FFFFFF" stroke="#FFFFFF" stroke-miterlimit="10" d="M174.071,40.219v-25.56h12.638c1.285,0,2.47,0.229,3.556,0.684
			c1.085,0.456,2.021,1.062,2.806,1.818c0.785,0.756,1.399,1.608,1.843,2.556c0.442,0.948,0.664,1.902,0.664,2.862
			c0,0.936-0.172,1.842-0.515,2.718c-0.343,0.876-0.828,1.662-1.456,2.358c-0.629,0.696-1.386,1.272-2.271,1.728
			c-0.886,0.456-1.857,0.756-2.913,0.899l7.582,9.937h-2.527l-7.368-9.648h-9.854v9.648H174.071z M176.255,28.879h10.667
			c0.971,0,1.856-0.181,2.656-0.54c0.799-0.36,1.484-0.834,2.057-1.422c0.57-0.588,1.007-1.26,1.307-2.016
			c0.3-0.756,0.449-1.53,0.449-2.322c0-0.815-0.179-1.602-0.535-2.358c-0.357-0.756-0.843-1.422-1.457-1.998
			c-0.614-0.576-1.328-1.038-2.142-1.386c-0.813-0.348-1.692-0.522-2.635-0.522h-10.367V28.879z"/>
		<path fill="#FFFFFF" stroke="#FFFFFF" stroke-miterlimit="10" d="M204.016,40.219v-25.56h12.509c1.285,0,2.471,0.229,3.556,0.684
			c1.085,0.456,2.021,1.062,2.807,1.818c0.785,0.756,1.398,1.608,1.842,2.556c0.442,0.948,0.664,1.902,0.664,2.862
			c0,1.032-0.208,2.028-0.621,2.988c-0.414,0.96-1,1.812-1.757,2.555c-0.757,0.744-1.664,1.339-2.72,1.782
			c-1.058,0.444-2.229,0.666-3.514,0.666h-10.581v9.648H204.016z M206.201,28.879h10.496c0.999,0,1.898-0.174,2.698-0.522
			c0.8-0.347,1.479-0.815,2.035-1.404c0.557-0.588,0.985-1.26,1.285-2.016c0.3-0.756,0.45-1.542,0.45-2.358
			c0-0.84-0.179-1.638-0.536-2.394c-0.357-0.756-0.843-1.422-1.456-1.998c-0.614-0.576-1.328-1.031-2.142-1.368
			c-0.814-0.336-1.679-0.504-2.592-0.504h-10.239V28.879z"/>
	</g>
	<g display="none">
		<g display="inline">
			<g>
				<path fill="#1ABC9C" d="M44.507,21.82c2.882,0,5.218-2.486,5.218-5.552s-2.336-5.552-5.218-5.552
					c-2.881,0-5.218,2.486-5.218,5.552S41.626,21.82,44.507,21.82z"/>
				<path fill="#1ABC9C" d="M52.91,23.12c-0.104-0.118-0.249-0.186-0.402-0.186H41.095l-1.041,15.83
					c-0.014,0.207-0.054,0.406-0.116,0.594v10.464c0,0.323,0.246,0.584,0.549,0.584h8.04c0.303,0,0.549-0.262,0.549-0.584V39.019
					h2.45c0.288,0,0.528-0.237,0.548-0.543l0.981-14.915C53.067,23.398,53.014,23.239,52.91,23.12z"/>
				<ellipse fill="#1ABC9C" cx="16.108" cy="16.268" rx="5.218" ry="5.552"/>
				<path fill="#1ABC9C" d="M19.52,22.935H8.107c-0.152,0-0.298,0.067-0.402,0.186c-0.104,0.119-0.157,0.278-0.146,0.439
					L8.54,38.475c0.02,0.306,0.259,0.543,0.548,0.543h2.45v10.804c0,0.323,0.246,0.584,0.549,0.584h8.041
					c0.303,0,0.549-0.262,0.549-0.584V39.359c-0.061-0.188-0.102-0.387-0.116-0.594L19.52,22.935z"/>
				<ellipse fill="#1ABC9C" cx="30.308" cy="13.548" rx="5.641" ry="6.002"/>
				<path fill="#1ABC9C" d="M39.391,20.955c-0.112-0.128-0.27-0.201-0.434-0.201H21.658c-0.165,0-0.322,0.073-0.434,0.201
					c-0.112,0.128-0.169,0.3-0.158,0.475l1.061,16.125c0.021,0.32,0.264,0.568,0.562,0.584l2.68,0.002v11.681
					c0,0.349,0.266,0.632,0.594,0.632h8.692c0.328,0,0.594-0.283,0.594-0.632V38.141l2.68-0.002
					c0.298-0.016,0.541-0.265,0.562-0.584L39.55,21.43C39.561,21.256,39.504,21.084,39.391,20.955z"/>
			</g>
		</g>
		<g display="inline">
		</g>
		<g display="inline">
		</g>
		<g display="inline">
		</g>
		<g display="inline">
		</g>
		<g display="inline">
		</g>
		<g display="inline">
		</g>
		<g display="inline">
		</g>
		<g display="inline">
		</g>
		<g display="inline">
		</g>
		<g display="inline">
		</g>
		<g display="inline">
		</g>
		<g display="inline">
		</g>
		<g display="inline">
		</g>
		<g display="inline">
		</g>
		<g display="inline">
		</g>
	</g>
</g>
<line fill="none" x1="40.557" y1="14.368" x2="40.557" y2="18.628"/>
<line fill="none" x1="40.557" y1="18.628" x2="40.557" y2="22.888"/>
<g display="none">
	<g display="inline">
		<g>
			<path fill="#1ABC9C" d="M30.917,6.634c12.557,0,22.773,10.054,22.773,22.411c0,0.706,0.58,1.276,1.297,1.276
				c0.717,0,1.297-0.571,1.297-1.276c0-13.765-11.381-24.964-25.368-24.964c-0.717,0-1.297,0.571-1.297,1.277
				C29.619,6.063,30.2,6.634,30.917,6.634z"/>
			<path fill="#1ABC9C" d="M30.917,54.009c0.717,0,1.297-0.571,1.297-1.277c0-0.706-0.58-1.276-1.297-1.276
				c-9.306,0-17.322-5.524-20.851-13.415l3.172-0.986c0.358,1.165,1.659,4.329,5.822,7.504c0.079,0.06,0.172,0.089,0.265,0.089
				c0.13,0,0.257-0.056,0.343-0.165c0.146-0.185,0.111-0.452-0.077-0.597c-3.97-3.027-5.203-6.067-5.523-7.089l6.762-2.104
				c2.148,4.456,6.752,7.551,12.088,7.551c0.477,0,0.865-0.381,0.865-0.851c0-0.47-0.388-0.851-0.865-0.851
				c-6.428,0-11.656-5.146-11.656-11.469c0-6.325,5.229-11.471,11.656-11.471c0.477,0,0.865-0.381,0.865-0.851
				c0-0.47-0.388-0.851-0.865-0.851c-4.708,0-8.848,2.41-11.235,6.037l-4.536-3.572c1.192-1.495,2.624-2.794,4.247-3.833l1.527,1.71
				c0.086,0.095,0.204,0.145,0.324,0.145c0.098,0,0.196-0.032,0.277-0.099c0.022-0.018,2.205-1.774,5.147-1.898
				c0.239-0.01,0.424-0.208,0.414-0.443c-0.009-0.235-0.225-0.418-0.451-0.407c-2.57,0.107-4.562,1.309-5.327,1.843l-1.16-1.3
				c2.334-1.338,5.007-2.151,7.86-2.298c0.201,0.447,0.655,0.76,1.185,0.76c2.166,0,4.273,0.402,6.262,1.194
				c0.161,0.064,0.324,0.093,0.486,0.093c0.284,0,0.556-0.1,0.78-0.268c1.351,0.665,2.601,1.494,3.727,2.465
				c-0.072,0.403,0.029,0.831,0.352,1.137c1.553,1.478,2.784,3.209,3.656,5.144c0.17,0.377,0.505,0.625,0.883,0.716
				c0.521,1.387,0.876,2.849,1.017,4.376c-0.301,0.243-0.491,0.612-0.478,1.025c0.005,0.181,0.009,0.363,0.009,0.546
				c0,1.946-0.341,3.849-1.015,5.656c-0.147,0.396-0.079,0.816,0.14,1.144c-0.608,1.385-1.4,2.67-2.338,3.84
				c-0.4-0.045-0.814,0.071-1.105,0.388c-1.45,1.575-3.168,2.842-5.105,3.767c-0.44,0.21-0.698,0.633-0.724,1.081
				c-1.335,0.557-2.761,0.936-4.239,1.151c-0.239-0.405-0.691-0.666-1.203-0.633c-0.365,0.023-0.733,0.036-1.105,0.036
				c-0.717,0-1.297,0.572-1.297,1.277c0,0.706,0.58,1.277,1.297,1.277c0.429,0,0.853-0.013,1.275-0.041
				c0.618-0.039,1.104-0.501,1.195-1.08c1.509-0.223,2.964-0.608,4.329-1.172c0.247,0.333,0.63,0.53,1.037,0.53
				c0.191,0,0.382-0.04,0.564-0.128c2.239-1.067,4.222-2.532,5.897-4.351c0.457-0.496,0.428-1.241-0.029-1.721
				c0.895-1.139,1.659-2.38,2.258-3.713c0.123,0.036,0.246,0.065,0.368,0.065c0.529,0,1.026-0.321,1.218-0.838
				c0.78-2.09,1.174-4.288,1.174-6.535c0-0.21-0.003-0.419-0.01-0.627c-0.022-0.68-0.59-1.208-1.265-1.23
				c-0.152-1.456-0.498-2.853-0.982-4.187c0.615-0.305,0.888-1.029,0.606-1.654c-1.009-2.236-2.431-4.236-4.224-5.943
				c-0.476-0.454-1.209-0.457-1.711-0.052c-1.121-0.951-2.359-1.766-3.692-2.431c0.144-0.603-0.17-1.236-0.772-1.475
				c-2.299-0.916-4.734-1.381-7.236-1.381c-0.599,0-1.098,0.402-1.247,0.945c-3.133,0.163-6.054,1.097-8.58,2.62
				c-0.066,0.015-0.13,0.042-0.185,0.089c-0.014,0.012-0.02,0.027-0.031,0.04c-5.16,3.206-8.604,8.852-8.604,15.287
				c0,0.235,0.194,0.426,0.432,0.426s0.432-0.19,0.432-0.426c0-3.696,1.2-7.117,3.221-9.926l4.602,3.624
				c-1.078,1.897-1.697,4.078-1.697,6.403c0,1.709,0.343,3.337,0.947,4.836L9.731,37.253c-1.021-2.543-1.589-5.311-1.589-8.208
				c0-5.382,1.966-10.585,5.539-14.65c0.469-0.533,0.409-1.34-0.133-1.801c-0.542-0.461-1.361-0.404-1.83,0.131
				c-3.978,4.529-6.17,10.325-6.17,16.32C5.549,42.81,16.929,54.009,30.917,54.009z"/>
			<path fill="#1ABC9C" d="M32.916,39.79c6.062,0,10.994-4.854,10.994-10.819c0-5.966-4.932-10.819-10.994-10.819
				c-0.478,0-0.865,0.381-0.865,0.851c0,0.47,0.387,0.851,0.865,0.851c5.108,0,9.265,4.09,9.265,9.117
				c0,5.027-4.157,9.117-9.265,9.117c-0.478,0-0.865,0.382-0.865,0.851C32.051,39.409,32.438,39.79,32.916,39.79z"/>
			<path fill="#1ABC9C" d="M35.36,42.981c1.128-0.248,2.191-0.628,3.192-1.109l-0.434-0.739c-0.923,0.439-1.906,0.789-2.947,1.016
				c-0.233,0.051-0.38,0.278-0.328,0.509C34.895,42.888,35.126,43.033,35.36,42.981z"/>
			<path fill="#1ABC9C" d="M39.625,40.3l0.435,0.739c1.677-1.07,3.098-2.466,4.185-4.1l-0.75-0.426
				C42.485,38.018,41.17,39.306,39.625,40.3z"/>
			<path fill="#1ABC9C" d="M43.422,21.525l0.749-0.426c-1.09-1.602-2.506-2.992-4.154-4.07l-0.432,0.738
				C41.103,18.768,42.409,20.049,43.422,21.525z"/>
			<path fill="#1ABC9C" d="M44.344,35.032l0.752,0.426c0.86-1.706,1.384-3.603,1.503-5.608h-0.865
				C45.618,31.701,45.133,33.451,44.344,35.032z"/>
			<path fill="#1ABC9C" d="M38.088,16.913l0.433-0.738c-0.993-0.495-2.044-0.893-3.155-1.156c-0.231-0.055-0.466,0.086-0.522,0.313
				c-0.057,0.227,0.088,0.459,0.318,0.514C36.192,16.089,37.169,16.456,38.088,16.913z"/>
			<path fill="#1ABC9C" d="M45.038,22.571l-0.747,0.425c0.82,1.587,1.326,3.333,1.445,5.151H46.6
				C46.48,26.177,45.932,24.286,45.038,22.571z"/>
			<path fill="#1ABC9C" d="M32.916,22.831c3.502,0,6.341,2.794,6.341,6.241c0,3.447-2.839,6.241-6.341,6.241
				c-3.503,0-6.342-2.794-6.342-6.241C26.574,25.625,29.413,22.831,32.916,22.831z"/>
		</g>
	</g>
	<g display="inline">
	</g>
	<g display="inline">
	</g>
	<g display="inline">
	</g>
	<g display="inline">
	</g>
	<g display="inline">
	</g>
	<g display="inline">
	</g>
	<g display="inline">
	</g>
	<g display="inline">
	</g>
	<g display="inline">
	</g>
	<g display="inline">
	</g>
	<g display="inline">
	</g>
	<g display="inline">
	</g>
	<g display="inline">
	</g>
	<g display="inline">
	</g>
	<g display="inline">
	</g>
</g>
<g>
	<path fill="#1ABC9C" d="M50.41,44.347v3.147c0,0.896-0.591,1.622-1.32,1.622H12.726c-0.729,0-1.32-0.726-1.32-1.622v-3.147
		c0-0.896,0.591-1.622,1.32-1.622H49.09C49.819,42.725,50.41,43.451,50.41,44.347z M49.107,9.884h-8.011
		c-0.729,0-1.32,0.726-1.32,1.622v26.815c0,0.896,0.591,1.622,1.32,1.622h8.011c0.729,0,1.32-0.726,1.32-1.622V11.506
		C50.427,10.61,49.836,9.884,49.107,9.884z M34.913,19.976h-8.011c-0.729,0-1.32,0.726-1.32,1.622v16.724
		c0,0.896,0.591,1.622,1.32,1.622h8.011c0.729,0,1.32-0.726,1.32-1.622V21.598C36.233,20.702,35.642,19.976,34.913,19.976z
		 M20.896,30.644h-8.011c-0.729,0-1.32,0.726-1.32,1.622v6.055c0,0.896,0.591,1.622,1.32,1.622h8.011c0.729,0,1.32-0.726,1.32-1.622
		v-6.055C22.216,31.37,21.625,30.644,20.896,30.644z"/>
	<g>
	</g>
	<g>
	</g>
	<g>
	</g>
	<g>
	</g>
	<g>
	</g>
	<g>
	</g>
	<g>
	</g>
	<g>
	</g>
	<g>
	</g>
	<g>
	</g>
	<g>
	</g>
	<g>
	</g>
	<g>
	</g>
	<g>
	</g>
	<g>
	</g>
</g>
<g>
</g>
<g>
</g>
<g>
</g>
<g>
</g>
<g>
</g>
<g>
</g>
</svg>
