<?xml version="1.0" encoding="utf-8"?>
<!-- Generator: Adobe Illustrator 17.0.0, SVG Export Plug-In . SVG Version: 6.00 Build 0)  -->
<!DOCTYPE svg PUBLIC "-//W3C//DTD SVG 1.1//EN" "http://www.w3.org/Graphics/SVG/1.1/DTD/svg11.dtd">
<svg version="1.1" id="Ebene_1" xmlns="http://www.w3.org/2000/svg" xmlns:xlink="http://www.w3.org/1999/xlink" x="0px" y="0px"
	 width="243.278px" height="58px" viewBox="0 0 243.278 58" enable-background="new 0 0 243.278 58" xml:space="preserve">
<path id="Path" display="none" fill="#103754" d="M65.168,36.25c0,7.588-6.107,13.739-13.638,13.739H9.339
	c-7.529,0-13.635-6.151-13.635-13.739c0-6.853,4.977-12.528,11.491-13.568c-0.082-0.482-0.128-0.976-0.128-1.485
	c0-4.807,3.869-8.704,8.642-8.704c2.128,0,4.079,0.776,5.584,2.066c2.684-6.092,6.121-11.649,15.77-11.649
	c11.701,0,17.249,9.093,17.249,18.688c0,0.4-0.018,0.797-0.046,1.192C60.487,24.065,65.168,29.608,65.168,36.25z"/>
<rect x="-3.222" y="-1.955" fill="#2C3E50" width="246.5" height="62"/>
<g>
	<path fill="#FFFFFF" d="M61.833,46c0,6.627-5.373,12-12,12H12C5.373,58,0,52.627,0,46V12C0,5.373,5.373,0,12,0h37.833
		c6.627,0,12,5.373,12,12V46z"/>
	<rect x="43.153" y="7.979" fill="#1ABC9C" stroke="#FFFFFF" stroke-miterlimit="10" width="12.383" height="43.413"/>
	<rect x="30.405" y="20.42" fill="#1ABC9C" stroke="#FFFFFF" stroke-miterlimit="10" width="11.832" height="31.973"/>
	<g>
		<path fill="#FFFFFF" stroke="#FFFFFF" stroke-miterlimit="10" d="M77.04,45.528c-0.762,0-1.469-0.085-2.124-0.255
			c-0.654-0.17-1.244-0.455-1.768-0.854l0.964-0.99c0.405,0.279,0.845,0.47,1.321,0.569c0.476,0.101,0.952,0.15,1.428,0.15
			c0.453,0,0.893-0.075,1.321-0.225c0.429-0.15,0.809-0.36,1.143-0.63c0.333-0.271,0.607-0.591,0.821-0.96
			c0.214-0.371,0.321-0.775,0.321-1.216v-16.5h1.785v16.44c0,0.66-0.149,1.26-0.446,1.8c-0.298,0.54-0.696,1.01-1.196,1.41
			c-0.5,0.399-1.059,0.71-1.678,0.93C78.313,45.418,77.683,45.528,77.04,45.528z M80.468,21.078v-2.76h1.785v2.76H80.468z"/>
		<path fill="#FFFFFF" stroke="#FFFFFF" stroke-miterlimit="10" d="M95.354,40.518c-3.951,0-5.926-2.3-5.926-6.9v-9h1.785v8.79
			c0,3.84,1.559,5.761,4.677,5.761c0.785,0,1.547-0.115,2.285-0.346c0.737-0.229,1.428-0.55,2.071-0.96
			c0.643-0.409,1.208-0.904,1.696-1.484c0.487-0.58,0.875-1.22,1.16-1.92v-9.84h1.785v13.5c0,0.501,0.25,0.75,0.75,0.75v1.351
			c-0.12,0.02-0.227,0.029-0.321,0.029c-0.096,0-0.167,0-0.214,0c-0.476,0-0.898-0.124-1.267-0.375
			c-0.37-0.249-0.554-0.585-0.554-1.005v-2.34c-0.809,1.26-1.922,2.24-3.338,2.94S96.996,40.518,95.354,40.518z"/>
		<path fill="#FFFFFF" stroke="#FFFFFF" stroke-miterlimit="10" d="M118.238,40.518c-1.428,0-2.797-0.2-4.105-0.6
			c-1.31-0.4-2.452-1-3.427-1.801l0.892-1.02c1,0.76,2.035,1.32,3.106,1.68c1.071,0.36,2.25,0.54,3.535,0.54
			c1.618,0,2.921-0.285,3.909-0.854c0.987-0.57,1.481-1.365,1.481-2.386c0-0.479-0.125-0.885-0.375-1.215s-0.625-0.609-1.125-0.84
			c-0.5-0.229-1.119-0.435-1.856-0.615c-0.738-0.18-1.595-0.369-2.57-0.569c-1.048-0.2-1.958-0.4-2.731-0.601
			c-0.774-0.199-1.41-0.439-1.91-0.72c-0.5-0.28-0.875-0.62-1.125-1.021c-0.25-0.399-0.375-0.909-0.375-1.529
			c0-0.78,0.179-1.459,0.536-2.04c0.357-0.58,0.851-1.06,1.481-1.44c0.63-0.38,1.357-0.665,2.178-0.855
			c0.821-0.19,1.696-0.285,2.624-0.285c1.452,0,2.737,0.206,3.855,0.615c1.119,0.41,1.987,0.935,2.606,1.575l-1,0.81
			c-0.619-0.6-1.422-1.05-2.41-1.35c-0.988-0.3-2.041-0.45-3.159-0.45c-0.691,0-1.339,0.06-1.946,0.18
			c-0.607,0.12-1.137,0.311-1.589,0.57c-0.452,0.26-0.809,0.595-1.071,1.005c-0.262,0.41-0.393,0.896-0.393,1.455
			c0,0.46,0.089,0.83,0.268,1.109c0.179,0.28,0.464,0.521,0.857,0.721s0.898,0.375,1.517,0.524c0.619,0.15,1.357,0.315,2.213,0.495
			c1.166,0.24,2.201,0.471,3.106,0.69c0.904,0.22,1.66,0.49,2.267,0.81c0.607,0.32,1.071,0.7,1.392,1.14
			c0.321,0.44,0.482,1.001,0.482,1.681c0,1.4-0.648,2.515-1.945,3.345C122.134,40.103,120.403,40.518,118.238,40.518z"/>
		<path fill="#FFFFFF" stroke="#FFFFFF" stroke-miterlimit="10" d="M139.586,39.469c-0.096,0.04-0.258,0.115-0.482,0.225
			c-0.227,0.11-0.512,0.215-0.857,0.315c-0.346,0.1-0.732,0.19-1.16,0.27c-0.428,0.08-0.893,0.12-1.393,0.12s-0.969-0.06-1.41-0.18
			c-0.44-0.12-0.827-0.3-1.16-0.54c-0.334-0.24-0.595-0.53-0.786-0.87c-0.191-0.34-0.286-0.74-0.286-1.2v-11.76h-2.606v-1.23h2.606
			v-5.34h1.785v5.34h4.319v1.23h-4.319v11.399c0,0.581,0.238,1.016,0.713,1.306c0.477,0.29,1.012,0.435,1.607,0.435
			c0.736,0,1.375-0.104,1.91-0.314s0.861-0.346,0.98-0.405L139.586,39.469z"/>
		<path fill="#FFFFFF" stroke="#FFFFFF" stroke-miterlimit="10" d="M165.974,38.562v1.656h-20.263v-25.56h19.878v1.656h-17.693
			v10.044h15.465v1.584h-15.465v10.62H165.974z"/>
		<path fill="#FFFFFF" stroke="#FFFFFF" stroke-miterlimit="10" d="M174.072,40.219v-25.56h12.638c1.285,0,2.47,0.229,3.556,0.684
			c1.085,0.456,2.021,1.062,2.806,1.818c0.785,0.756,1.399,1.608,1.843,2.556c0.442,0.948,0.664,1.902,0.664,2.862
			c0,0.936-0.172,1.842-0.515,2.718c-0.343,0.876-0.828,1.662-1.456,2.358c-0.629,0.696-1.386,1.272-2.271,1.728
			c-0.886,0.456-1.857,0.756-2.913,0.899l7.582,9.937h-2.527l-7.368-9.648h-9.854v9.648H174.072z M176.256,28.879h10.667
			c0.971,0,1.856-0.181,2.656-0.54c0.799-0.36,1.484-0.834,2.057-1.422c0.57-0.588,1.007-1.26,1.307-2.016
			c0.3-0.756,0.449-1.53,0.449-2.322c0-0.815-0.179-1.602-0.535-2.358c-0.357-0.756-0.843-1.422-1.457-1.998
			c-0.614-0.576-1.328-1.038-2.142-1.386c-0.813-0.348-1.692-0.522-2.635-0.522h-10.367V28.879z"/>
		<path fill="#FFFFFF" stroke="#FFFFFF" stroke-miterlimit="10" d="M204.016,40.219v-25.56h12.509c1.285,0,2.471,0.229,3.556,0.684
			c1.085,0.456,2.021,1.062,2.807,1.818c0.785,0.756,1.398,1.608,1.842,2.556c0.442,0.948,0.664,1.902,0.664,2.862
			c0,1.032-0.208,2.028-0.621,2.988c-0.414,0.96-1,1.812-1.757,2.555c-0.757,0.744-1.664,1.339-2.72,1.782
			c-1.058,0.444-2.229,0.666-3.514,0.666h-10.581v9.648H204.016z M206.201,28.879h10.496c0.999,0,1.898-0.174,2.698-0.522
			c0.8-0.347,1.479-0.815,2.035-1.404c0.557-0.588,0.985-1.26,1.285-2.016c0.3-0.756,0.45-1.542,0.45-2.358
			c0-0.84-0.179-1.638-0.536-2.394c-0.357-0.756-0.843-1.422-1.456-1.998c-0.614-0.576-1.328-1.031-2.142-1.368
			c-0.814-0.336-1.679-0.504-2.592-0.504h-10.239V28.879z"/>
	</g>
	<rect x="17.823" y="29.045" fill="#1ABC9C" stroke="#FFFFFF" stroke-miterlimit="10" width="11.832" height="22.348"/>
	<rect x="4.816" y="36.92" fill="#1ABC9C" stroke="#FFFFFF" stroke-miterlimit="10" width="11.832" height="14.473"/>
</g>
<line fill="none" x1="40.557" y1="14.368" x2="40.557" y2="18.628"/>
<line fill="none" x1="40.557" y1="18.628" x2="40.557" y2="22.888"/>
<g>
</g>
<g>
</g>
<g>
</g>
<g>
</g>
<g>
</g>
<g>
</g>
</svg>
